<?xml version="1.0" standalone="no"?>
<!DOCTYPE svg PUBLIC "-//W3C//DTD SVG 20010904//EN"
 "http://www.w3.org/TR/2001/REC-SVG-20010904/DTD/svg10.dtd">
<svg version="1.0" xmlns="http://www.w3.org/2000/svg"
 width="1456.000000pt" height="1562.000000pt" viewBox="0 0 1456.000000 1562.000000"
 preserveAspectRatio="xMidYMid meet">

<g transform="translate(0.000000,1562.000000) scale(0.100000,-0.100000)"
fill="#000000" stroke="none">
<path d="M2845 14162 c-147 -44 -277 -147 -336 -268 -41 -82 -51 -193 -25
-270 47 -141 204 -244 371 -244 135 0 287 60 383 150 30 27 58 50 63 50 5 0
35 -26 67 -58 164 -164 369 -562 517 -1007 65 -195 134 -454 138 -520 l2 -38
-124 -28 c-545 -126 -1022 -388 -1406 -774 -554 -556 -858 -1326 -832 -2110
15 -431 107 -794 302 -1190 308 -625 832 -1109 1494 -1380 88 -36 327 -115
348 -115 3 0 3 -19 0 -42 -3 -24 -2 -77 4 -117 18 -147 104 -274 221 -326 53
-24 70 -27 132 -23 39 3 84 12 100 20 30 15 30 15 57 -22 43 -59 109 -99 208
-127 11 -3 10 -8 -6 -26 -11 -12 -48 -55 -84 -96 -168 -193 -512 -442 -692
-500 -35 -12 -39 -11 -77 22 -176 150 -550 111 -743 -78 -175 -171 -151 -406
52 -514 286 -152 724 11 800 297 8 28 17 42 29 42 58 1 301 137 476 269 144
108 397 363 473 477 33 51 63 98 65 105 8 25 77 -28 87 -69 6 -20 22 -84 36
-142 180 -725 513 -1358 971 -1847 l106 -113 -133 -398 c-261 -783 -448 -1334
-453 -1339 -3 -3 -21 8 -40 25 -98 86 -285 186 -402 216 -219 56 -377 36 -484
-60 -90 -81 -114 -206 -67 -336 79 -219 345 -430 636 -505 81 -21 113 -24 207
-21 102 4 118 7 178 37 136 67 191 190 155 348 -11 48 -9 54 204 688 195 583
380 1131 392 1163 3 8 43 -16 112 -67 289 -215 659 -388 1013 -475 241 -58
425 -80 695 -79 234 0 403 17 636 63 80 16 155 27 167 23 14 -3 46 -40 82 -92
369 -536 980 -794 1544 -650 43 11 80 18 82 16 2 -2 0 -28 -6 -57 -15 -80 -12
-261 6 -348 34 -168 113 -296 223 -360 64 -37 172 -39 246 -3 112 55 212 205
257 386 29 117 31 342 4 450 -42 174 -144 313 -257 350 -93 31 -206 7 -279
-60 -31 -28 -178 -94 -285 -128 -389 -122 -833 2 -1156 323 -84 83 -172 190
-200 241 -7 14 11 24 119 64 524 196 985 471 1462 873 190 161 584 560 756
767 269 325 538 708 723 1032 76 134 141 303 141 368 0 45 -33 91 -75 105 -49
16 -80 7 -145 -44 -30 -24 -77 -56 -105 -72 -49 -29 -52 -29 -200 -28 -148 1
-152 1 -270 41 -248 84 -845 386 -1145 581 -119 77 -541 375 -536 379 1 2 77
23 167 47 1583 423 3335 1668 3941 2801 166 310 237 564 225 809 -7 147 -31
238 -94 358 -171 324 -559 498 -1113 498 -795 0 -1894 -371 -2855 -965 -58
-36 -107 -65 -109 -65 -3 0 17 46 44 103 276 585 430 1192 430 1690 0 532
-172 931 -480 1111 -484 284 -1204 -26 -1846 -794 -470 -562 -858 -1361 -992
-2042 -15 -76 -29 -138 -32 -138 -3 0 -27 42 -54 93 -129 242 -278 446 -465
640 -325 335 -648 547 -1096 717 l-24 9 40 118 c138 399 337 744 554 959 75
74 211 182 219 173 2 -2 13 -25 24 -51 25 -58 97 -136 163 -179 165 -106 412
-110 569 -9 61 39 101 84 137 153 24 45 28 64 28 137 0 76 -3 92 -33 152 -111
225 -435 326 -679 211 -57 -26 -158 -113 -168 -142 -3 -9 -42 -36 -88 -59
-216 -110 -448 -345 -623 -632 -115 -190 -242 -468 -314 -690 -14 -41 -25 -76
-26 -78 0 -1 -48 9 -105 22 -243 57 -511 81 -771 70 l-168 -7 0 24 c0 13 -16
91 -35 172 -155 667 -513 1395 -764 1556 l-49 32 0 64 c-1 100 -24 157 -96
230 -81 82 -143 107 -281 111 -74 3 -115 -1 -160 -14z m255 -212 c106 -54 89
-205 -33 -288 -69 -48 -124 -66 -202 -66 -182 -1 -244 126 -129 264 81 96 263
141 364 90z m3722 -620 c20 -6 58 -25 85 -43 156 -105 113 -255 -85 -297 -101
-22 -249 28 -302 102 -70 96 -35 190 86 233 46 17 164 19 216 5z m2909 -146
c225 -67 373 -262 439 -579 100 -484 -19 -1161 -325 -1838 -72 -160 -119 -254
-230 -453 -96 -172 -113 -195 -188 -252 -678 -521 -1192 -1086 -1437 -1577
-36 -71 -66 -132 -68 -134 -1 -3 -8 1 -14 7 -7 7 -11 32 -9 57 12 200 -133
373 -339 404 -62 9 -132 3 -174 -14 -17 -7 -18 -4 -11 46 5 30 8 162 8 294 -1
205 -5 266 -27 417 -48 324 -31 630 56 1003 126 544 416 1162 770 1642 182
248 460 538 653 683 194 146 415 259 577 294 90 20 252 20 319 0z m-4846
-1468 c61 -9 155 -26 210 -39 118 -26 112 -8 72 -220 -51 -262 -70 -473 -47
-527 14 -33 55 -60 90 -60 32 0 78 30 89 59 6 14 19 105 30 201 27 234 69 450
88 450 43 0 358 -151 493 -237 424 -269 770 -659 968 -1090 96 -211 179 -468
197 -613 4 -30 13 -80 20 -110 32 -126 43 -403 25 -610 -69 -790 -475 -1491
-1119 -1932 -445 -305 -941 -458 -1481 -458 -1042 0 -1984 624 -2395 1587
-435 1016 -172 2204 650 2946 361 326 763 527 1263 633 l23 5 -3 -129 c-3
-115 -1 -132 16 -150 30 -34 78 -46 119 -28 57 23 71 61 75 208 l4 127 41 4
c92 10 466 -1 572 -17z m8380 -517 c351 -59 563 -218 626 -469 18 -73 15 -246
-5 -339 -128 -584 -743 -1332 -1622 -1974 -704 -513 -1498 -912 -2249 -1130
-165 -48 -434 -109 -451 -103 -12 5 -192 136 -295 215 -26 20 -98 79 -160 131
-273 230 -527 409 -696 494 -38 19 -120 51 -183 72 -63 20 -116 38 -118 39 -6
5 69 169 123 271 484 902 1785 1927 3122 2458 747 297 1427 417 1908 335z
m-5675 -2599 c78 -40 105 -121 80 -240 -17 -79 3 -124 75 -162 46 -24 74 -56
75 -84 0 -7 -25 -22 -56 -34 -91 -37 -122 -122 -71 -199 40 -61 47 -76 47 -97
0 -26 -15 -39 -54 -48 -70 -17 -114 -107 -83 -171 l15 -32 -42 4 c-91 11 -138
-46 -117 -141 10 -44 9 -65 -3 -120 -38 -163 -125 -244 -199 -185 -37 28 -87
35 -125 15 -56 -29 -67 -73 -38 -158 26 -74 16 -120 -35 -171 -37 -37 -42 -39
-88 -35 -31 3 -67 16 -98 35 -26 17 -60 33 -75 37 -43 10 -95 -17 -115 -59
-16 -33 -16 -40 -1 -98 29 -108 -9 -200 -111 -272 -36 -26 -52 -30 -105 -30
-58 0 -65 3 -114 42 -65 51 -99 60 -146 38 -47 -23 -66 -66 -66 -157 0 -78
-20 -138 -59 -177 -33 -33 -62 -26 -125 29 -67 58 -114 75 -160 56 -36 -15
-53 -33 -90 -98 -57 -102 -212 -214 -282 -206 -24 3 -30 11 -48 65 -23 66 -45
97 -88 119 -67 35 -115 6 -183 -107 -34 -57 -57 -85 -71 -87 -33 -5 -106 57
-122 103 -8 22 -19 53 -25 69 -14 39 -62 66 -116 66 -38 0 -48 -5 -85 -43 -22
-24 -56 -62 -74 -85 -38 -48 -59 -52 -100 -17 -22 19 -32 39 -41 83 -25 128
-142 162 -231 67 -31 -34 -72 -55 -104 -55 -56 0 -122 90 -133 180 -9 78 -7
80 81 64 139 -24 366 -37 536 -31 1284 47 2361 916 2685 2166 12 48 26 70 69
115 29 30 64 60 77 66 31 13 91 4 139 -20z m528 -711 c53 -17 127 -47 164 -65
148 -74 363 -219 470 -315 l37 -34 -25 -59 c-70 -163 -235 -377 -466 -603
l-83 -83 -100 49 c-128 62 -258 113 -415 164 -69 22 -127 41 -129 43 -2 2 12
34 32 71 19 37 41 87 47 109 11 36 19 45 60 63 55 25 131 109 163 180 15 35
18 58 14 110 -5 60 -3 67 23 100 49 63 61 143 36 241 -8 30 -12 59 -9 63 8 13
70 1 181 -34z m967 -648 c16 -16 93 -74 170 -130 77 -56 185 -141 239 -189 55
-48 113 -99 129 -113 27 -23 29 -28 17 -50 -22 -41 -200 -307 -213 -317 -15
-11 -825 39 -847 53 -8 5 -32 22 -52 38 l-37 30 116 126 c192 208 324 381 398
523 17 32 34 58 40 58 5 0 23 -13 40 -29z m-1550 -501 c145 -43 313 -104 417
-152 55 -25 66 -34 57 -44 -6 -8 -30 -14 -53 -14 -59 -1 -748 41 -765 46 -9 3
-1 18 26 47 47 51 79 102 89 140 6 28 8 29 52 22 24 -4 104 -24 177 -45z
m2468 -199 c45 -32 143 -98 217 -146 74 -48 137 -89 139 -91 5 -5 -80 -193
-89 -199 -4 -3 -7 44 -6 104 1 103 0 111 -23 135 -33 35 -68 42 -270 55 -96 6
-177 13 -179 16 -7 7 109 185 120 185 5 0 47 -26 91 -59z m-2338 -231 c428
-27 784 -50 791 -50 25 0 154 -144 197 -219 l26 -44 -28 -41 c-48 -71 -64
-126 -59 -208 3 -40 9 -82 13 -93 5 -10 -8 -1 -29 22 -46 51 -126 93 -179 93
-21 0 -70 -10 -109 -21 -88 -27 -157 -21 -237 21 -80 43 -144 42 -225 -4 -131
-74 -205 -190 -231 -365 -12 -79 -9 -161 11 -256 13 -62 76 -166 133 -216 96
-86 175 -108 258 -74 67 28 133 18 207 -33 136 -94 391 77 455 306 l10 32 -44
0 c-125 0 -215 90 -215 214 0 95 62 182 147 205 63 18 77 14 116 -33 25 -31
62 -57 114 -83 75 -37 80 -38 183 -37 91 0 112 3 160 26 122 57 197 141 227
254 37 142 -37 299 -174 371 -76 40 -152 57 -222 50 l-56 -6 -32 55 -31 54 42
0 c52 0 1138 -69 1142 -73 4 -4 -118 -1931 -123 -1936 -2 -3 -376 19 -831 48
-2411 153 -2856 182 -2860 186 -6 6 86 1467 97 1540 10 68 35 140 48 140 4 -1
33 -5 64 -9 115 -16 246 34 342 131 31 32 64 68 72 81 9 12 24 22 34 22 9 0
368 -22 796 -50z m3131 -244 c88 -47 210 -108 272 -137 61 -28 112 -57 112
-62 0 -6 -23 -62 -51 -126 -169 -383 -464 -839 -828 -1275 -65 -78 -125 -147
-134 -155 -22 -18 -23 -57 14 544 l31 510 83 140 c143 243 214 378 311 593 13
28 26 52 28 52 2 0 75 -38 162 -84z m-4885 -173 c28 -14 73 -28 100 -31 42 -4
49 -8 49 -26 0 -11 -7 -146 -17 -299 l-17 -279 -39 -20 c-103 -52 -413 -160
-542 -188 -49 -11 -90 -20 -92 -20 -16 0 -148 416 -196 620 -5 20 1 31 33 58
l39 32 43 -30 c130 -91 344 -36 507 130 42 42 77 78 79 79 1 0 25 -11 53 -26z
m3118 -23 c109 -31 108 -141 -1 -185 -56 -22 -99 -13 -143 31 -59 59 -39 117
52 149 47 17 50 17 92 5z m2510 -125 c77 -20 254 -35 324 -28 31 3 57 3 57 -1
0 -22 -219 -361 -369 -571 -409 -573 -955 -1114 -1472 -1461 -229 -154 -229
-153 -4 77 483 490 855 969 1136 1459 81 142 224 429 250 503 7 20 15 37 17
37 2 0 30 -7 61 -15z m-8083 -780 c28 -8 61 -26 73 -39 21 -23 23 -28 11 -56
-27 -66 -132 -129 -250 -150 -106 -19 -223 13 -236 64 -15 60 84 146 205 178
83 21 134 22 197 3z m2544 -87 c0 -18 -7 -145 -16 -281 -9 -137 -13 -264 -10
-282 9 -44 55 -82 109 -89 23 -3 219 -17 436 -31 216 -13 396 -26 398 -29 9
-9 -296 -162 -512 -256 -78 -34 -266 -100 -285 -100 -30 0 -251 267 -377 455
-96 144 -272 460 -261 470 2 2 39 13 83 25 100 28 362 118 395 136 36 19 40
18 40 -18z m2130 -784 c327 -21 597 -39 599 -41 7 -5 -41 -53 -204 -206 -268
-250 -587 -520 -847 -715 l-136 -102 -97 21 c-204 44 -468 141 -653 240 -170
91 -418 261 -407 279 3 5 22 14 43 21 20 7 64 24 97 39 33 15 94 42 135 60
175 76 549 278 740 399 43 27 77 41 100 41 19 0 303 -16 630 -36z m1423 -91
c163 -9 297 -20 297 -24 0 -11 -263 -262 -380 -363 -216 -186 -517 -413 -530
-399 -16 16 -71 210 -90 317 -32 177 -43 152 138 335 l157 159 55 -3 c30 -3
189 -12 353 -22z m-937 -530 c19 -89 67 -261 90 -323 14 -39 23 -74 20 -77 -7
-8 -161 -38 -286 -58 -58 -8 -179 -18 -270 -22 -146 -5 -163 -4 -150 10 8 8
96 82 196 165 99 82 225 191 280 240 54 50 102 91 106 91 4 1 10 -11 14 -26z
m2357 -1203 c63 -75 97 -250 78 -400 -19 -148 -81 -287 -140 -313 -21 -10 -27
-7 -60 30 -83 93 -110 321 -60 506 15 56 61 146 92 180 33 35 59 34 90 -3z
m-6027 -451 c137 -42 248 -113 347 -219 98 -106 122 -191 62 -218 -40 -18
-152 -14 -233 8 -173 48 -338 163 -424 294 -76 117 -38 172 113 161 37 -3 98
-14 135 -26z"/>
<path d="M3176 10567 c-33 -33 -33 -73 -1 -121 45 -66 254 -314 271 -320 74
-28 136 29 110 102 -10 28 -233 310 -269 341 -8 6 -31 15 -50 18 -29 4 -40 1
-61 -20z"/>
<path d="M5135 10080 c-221 -58 -253 -69 -270 -93 -37 -53 -1 -127 64 -127 34
0 354 76 411 98 33 13 48 32 56 70 5 26 1 36 -24 62 -39 38 -51 38 -237 -10z"/>
<path d="M2945 9680 c-73 -29 -120 -72 -155 -144 -93 -188 -3 -394 198 -452
69 -20 138 -12 220 27 230 111 226 447 -6 561 -66 32 -187 36 -257 8z m-30
-160 c15 -17 16 -24 7 -45 -15 -33 -56 -34 -77 -1 -34 51 29 91 70 46z"/>
<path d="M4869 9497 c-74 -21 -133 -62 -172 -119 -139 -204 -11 -479 229 -496
159 -11 290 84 330 239 37 142 -36 294 -170 355 -64 29 -156 38 -217 21z m-69
-177 c23 -23 24 -33 10 -61 -14 -26 -55 -24 -74 3 -9 12 -16 26 -16 30 0 11
38 48 50 48 6 0 19 -9 30 -20z"/>
<path d="M3903 8695 c-138 -42 -253 -174 -288 -328 -42 -181 33 -340 194 -416
47 -22 70 -26 146 -26 78 0 98 4 152 29 73 33 147 107 182 179 50 103 35 237
-36 347 -37 56 -175 200 -211 219 -27 14 -87 13 -139 -4z m168 -217 c79 -82
113 -152 107 -221 -8 -99 -91 -181 -194 -193 -159 -19 -272 110 -238 271 17
88 57 149 113 174 63 27 71 29 113 30 34 1 45 -6 99 -61z"/>
<path d="M8304 6016 c-34 -15 -97 -87 -113 -129 -15 -39 -14 -94 2 -100 20 -8
86 19 126 51 51 41 82 98 79 147 -3 37 -6 40 -33 42 -16 2 -44 -3 -61 -11z"/>
</g>
</svg>
